<svg width="85" height="140" viewBox="0 0 85 140" fill="none" xmlns="http://www.w3.org/2000/svg">
<g clip-path="url(#clip0_2207_149)">
<rect width="85" height="140" rx="8" fill="#EAEAEC"/>
<rect x="5" y="8" width="75" height="124" rx="6" fill="#075CA9"/>
<ellipse cx="42.7084" cy="70.0481" rx="65.4861" ry="30.7695" transform="rotate(-59.5565 42.7084 70.0481)" fill="#EAEAEC"/>
<ellipse cx="42.7303" cy="69.6278" rx="57.8329" ry="27.1735" transform="rotate(-59.5565 42.7303 69.6278)" fill="#075CA9"/>
<g filter="url(#filter0_d_2207_149)">
<mask id="path-5-outside-1_2207_149" maskUnits="userSpaceOnUse" x="8" y="16" width="20" height="17" fill="black">
<rect fill="white" x="8" y="16" width="20" height="17"/>
<path d="M8.54422 20V17.42H13.3642V32H10.4842V20H8.54422ZM16.1303 24.52C16.1303 22.2133 16.5436 20.4067 17.3703 19.1C18.2103 17.7933 19.597 17.14 21.5303 17.14C23.4636 17.14 24.8436 17.7933 25.6703 19.1C26.5103 20.4067 26.9303 22.2133 26.9303 24.52C26.9303 26.84 26.5103 28.66 25.6703 29.98C24.8436 31.3 23.4636 31.96 21.5303 31.96C19.597 31.96 18.2103 31.3 17.3703 29.98C16.5436 28.66 16.1303 26.84 16.1303 24.52ZM24.1703 24.52C24.1703 23.5333 24.1036 22.7067 23.9703 22.04C23.8503 21.36 23.597 20.8067 23.2103 20.38C22.837 19.9533 22.277 19.74 21.5303 19.74C20.7836 19.74 20.217 19.9533 19.8303 20.38C19.457 20.8067 19.2036 21.36 19.0703 22.04C18.9503 22.7067 18.8903 23.5333 18.8903 24.52C18.8903 25.5333 18.9503 26.3867 19.0703 27.08C19.1903 27.76 19.4436 28.3133 19.8303 28.74C20.217 29.1533 20.7836 29.36 21.5303 29.36C22.277 29.36 22.8436 29.1533 23.2303 28.74C23.617 28.3133 23.8703 27.76 23.9903 27.08C24.1103 26.3867 24.1703 25.5333 24.1703 24.52Z"/>
</mask>
<path d="M8.54422 20V17.42H13.3642V32H10.4842V20H8.54422ZM16.1303 24.52C16.1303 22.2133 16.5436 20.4067 17.3703 19.1C18.2103 17.7933 19.597 17.14 21.5303 17.14C23.4636 17.14 24.8436 17.7933 25.6703 19.1C26.5103 20.4067 26.9303 22.2133 26.9303 24.52C26.9303 26.84 26.5103 28.66 25.6703 29.98C24.8436 31.3 23.4636 31.96 21.5303 31.96C19.597 31.96 18.2103 31.3 17.3703 29.98C16.5436 28.66 16.1303 26.84 16.1303 24.52ZM24.1703 24.52C24.1703 23.5333 24.1036 22.7067 23.9703 22.04C23.8503 21.36 23.597 20.8067 23.2103 20.38C22.837 19.9533 22.277 19.74 21.5303 19.74C20.7836 19.74 20.217 19.9533 19.8303 20.38C19.457 20.8067 19.2036 21.36 19.0703 22.04C18.9503 22.7067 18.8903 23.5333 18.8903 24.52C18.8903 25.5333 18.9503 26.3867 19.0703 27.08C19.1903 27.76 19.4436 28.3133 19.8303 28.74C20.217 29.1533 20.7836 29.36 21.5303 29.36C22.277 29.36 22.8436 29.1533 23.2303 28.74C23.617 28.3133 23.8703 27.76 23.9903 27.08C24.1103 26.3867 24.1703 25.5333 24.1703 24.52Z" fill="#EAEAEC"/>
<path d="M8.54422 20H8.04422V20.5H8.54422V20ZM8.54422 17.42V16.92H8.04422V17.42H8.54422ZM13.3642 17.42H13.8642V16.92H13.3642V17.42ZM13.3642 32V32.5H13.8642V32H13.3642ZM10.4842 32H9.98422V32.5H10.4842V32ZM10.4842 20H10.9842V19.5H10.4842V20ZM8.54422 20H9.04422V17.42H8.54422H8.04422V20H8.54422ZM8.54422 17.42V17.92H13.3642V17.42V16.92H8.54422V17.42ZM13.3642 17.42H12.8642V32H13.3642H13.8642V17.42H13.3642ZM13.3642 32V31.5H10.4842V32V32.5H13.3642V32ZM10.4842 32H10.9842V20H10.4842H9.98422V32H10.4842ZM10.4842 20V19.5H8.54422V20V20.5H10.4842V20ZM17.3703 19.1L16.9497 18.8296L16.9478 18.8327L17.3703 19.1ZM25.6703 19.1L25.2478 19.3673L25.2497 19.3704L25.6703 19.1ZM25.6703 29.98L25.2485 29.7116L25.2466 29.7146L25.6703 29.98ZM17.3703 29.98L16.9465 30.2454L16.9485 30.2484L17.3703 29.98ZM23.9703 22.04L23.4778 22.1269L23.48 22.1381L23.9703 22.04ZM23.2103 20.38L22.834 20.7093L22.8398 20.7158L23.2103 20.38ZM19.8303 20.38L19.4598 20.0442L19.454 20.0507L19.8303 20.38ZM19.0703 22.04L18.5796 21.9438L18.5782 21.9514L19.0703 22.04ZM19.0703 27.08L18.5776 27.1653L18.5779 27.1669L19.0703 27.08ZM19.8303 28.74L19.4598 29.0758L19.4652 29.0816L19.8303 28.74ZM23.2303 28.74L23.5955 29.0816L23.6008 29.0758L23.2303 28.74ZM23.9903 27.08L24.4827 27.1669L24.483 27.1653L23.9903 27.08ZM16.1303 24.52H16.6303C16.6303 22.2644 17.0359 20.5638 17.7929 19.3673L17.3703 19.1L16.9478 18.8327C16.0514 20.2495 15.6303 22.1622 15.6303 24.52H16.1303ZM17.3703 19.1L17.7909 19.3704C18.5158 18.2427 19.7195 17.64 21.5303 17.64V17.14V16.64C19.4744 16.64 17.9048 17.344 16.9497 18.8296L17.3703 19.1ZM21.5303 17.14V17.64C23.3414 17.64 24.5363 18.2427 25.2478 19.3673L25.6703 19.1L26.0929 18.8327C25.151 17.344 23.5859 16.64 21.5303 16.64V17.14ZM25.6703 19.1L25.2497 19.3704C26.0185 20.5662 26.4303 22.2656 26.4303 24.52H26.9303H27.4303C27.4303 22.1611 27.0022 20.2471 26.0909 18.8296L25.6703 19.1ZM26.9303 24.52H26.4303C26.4303 26.788 26.0184 28.5017 25.2485 29.7116L25.6703 29.98L26.0921 30.2484C27.0022 28.8183 27.4303 26.892 27.4303 24.52H26.9303ZM25.6703 29.98L25.2466 29.7146C24.5341 30.8523 23.3392 31.46 21.5303 31.46V31.96V32.46C23.5881 32.46 25.1532 31.7477 26.0941 30.2454L25.6703 29.98ZM21.5303 31.96V31.46C19.7217 31.46 18.518 30.8522 17.7921 29.7116L17.3703 29.98L16.9485 30.2484C17.9026 31.7478 19.4723 32.46 21.5303 32.46V31.96ZM17.3703 29.98L17.7941 29.7146C17.036 28.5041 16.6303 26.7891 16.6303 24.52H16.1303H15.6303C15.6303 26.8909 16.0513 28.8159 16.9466 30.2454L17.3703 29.98ZM24.1703 24.52H24.6703C24.6703 23.5137 24.6026 22.6518 24.4606 21.9419L23.9703 22.04L23.48 22.1381C23.6047 22.7616 23.6703 23.5529 23.6703 24.52H24.1703ZM23.9703 22.04L24.4627 21.9531C24.3296 21.199 24.0424 20.5535 23.5808 20.0442L23.2103 20.38L22.8398 20.7158C23.1516 21.0598 23.371 21.521 23.4779 22.1269L23.9703 22.04ZM23.2103 20.38L23.5866 20.0507C23.0905 19.4838 22.3727 19.24 21.5303 19.24V19.74V20.24C22.1813 20.24 22.5835 20.4229 22.834 20.7093L23.2103 20.38ZM21.5303 19.74V19.24C20.6869 19.24 19.9675 19.4841 19.4598 20.0442L19.8303 20.38L20.2008 20.7158C20.4665 20.4226 20.8804 20.24 21.5303 20.24V19.74ZM19.8303 20.38L19.454 20.0507C19.0111 20.5569 18.7262 21.1965 18.5797 21.9438L19.0703 22.04L19.561 22.1362C19.6811 21.5235 19.9028 21.0564 20.2066 20.7093L19.8303 20.38ZM19.0703 22.04L18.5782 21.9514C18.4512 22.6572 18.3903 23.5158 18.3903 24.52H18.8903H19.3903C19.3903 23.5509 19.4495 22.7561 19.5624 22.1286L19.0703 22.04ZM18.8903 24.52H18.3903C18.3903 25.5506 18.4512 26.4345 18.5776 27.1653L19.0703 27.08L19.563 26.9947C19.4495 26.3389 19.3903 25.5161 19.3903 24.52H18.8903ZM19.0703 27.08L18.5779 27.1669C18.711 27.921 18.9983 28.5665 19.4598 29.0758L19.8303 28.74L20.2008 28.4042C19.889 28.0602 19.6696 27.599 19.5627 26.9931L19.0703 27.08ZM19.8303 28.74L19.4652 29.0816C19.9739 29.6254 20.6916 29.86 21.5303 29.86V29.36V28.86C20.8757 28.86 20.46 28.6812 20.1954 28.3984L19.8303 28.74ZM21.5303 29.36V29.86C22.3691 29.86 23.0867 29.6254 23.5954 29.0816L23.2303 28.74L22.8652 28.3984C22.6006 28.6812 22.1849 28.86 21.5303 28.86V29.36ZM23.2303 28.74L23.6008 29.0758C24.0624 28.5665 24.3496 27.921 24.4827 27.1669L23.9903 27.08L23.4979 26.9931C23.391 27.599 23.1716 28.0602 22.8598 28.4042L23.2303 28.74ZM23.9903 27.08L24.483 27.1653C24.6095 26.4345 24.6703 25.5506 24.6703 24.52H24.1703H23.6703C23.6703 25.5161 23.6112 26.3389 23.4976 26.9947L23.9903 27.08Z" fill="#1E1E1E" mask="url(#path-5-outside-1_2207_149)"/>
</g>
<g filter="url(#filter1_d_2207_149)">
<mask id="path-7-outside-2_2207_149" maskUnits="userSpaceOnUse" x="57" y="107" width="20" height="17" fill="black">
<rect fill="white" x="57" y="107" width="20" height="17"/>
<path d="M76.4558 120L76.4558 122.58L71.6358 122.58L71.6358 108L74.5158 108L74.5158 120L76.4558 120ZM68.8697 115.48C68.8697 117.787 68.4564 119.593 67.6297 120.9C66.7897 122.207 65.403 122.86 63.4697 122.86C61.5364 122.86 60.1564 122.207 59.3297 120.9C58.4897 119.593 58.0697 117.787 58.0697 115.48C58.0697 113.16 58.4897 111.34 59.3297 110.02C60.1564 108.7 61.5364 108.04 63.4697 108.04C65.403 108.04 66.7897 108.7 67.6297 110.02C68.4564 111.34 68.8697 113.16 68.8697 115.48ZM60.8297 115.48C60.8297 116.467 60.8964 117.293 61.0297 117.96C61.1497 118.64 61.403 119.193 61.7897 119.62C62.163 120.047 62.723 120.26 63.4697 120.26C64.2164 120.26 64.783 120.047 65.1697 119.62C65.543 119.193 65.7964 118.64 65.9297 117.96C66.0497 117.293 66.1097 116.467 66.1097 115.48C66.1097 114.467 66.0497 113.613 65.9297 112.92C65.8097 112.24 65.5564 111.687 65.1697 111.26C64.783 110.847 64.2164 110.64 63.4697 110.64C62.723 110.64 62.1564 110.847 61.7697 111.26C61.383 111.687 61.1297 112.24 61.0097 112.92C60.8897 113.613 60.8297 114.467 60.8297 115.48Z"/>
</mask>
<path d="M76.4558 120L76.4558 122.58L71.6358 122.58L71.6358 108L74.5158 108L74.5158 120L76.4558 120ZM68.8697 115.48C68.8697 117.787 68.4564 119.593 67.6297 120.9C66.7897 122.207 65.403 122.86 63.4697 122.86C61.5364 122.86 60.1564 122.207 59.3297 120.9C58.4897 119.593 58.0697 117.787 58.0697 115.48C58.0697 113.16 58.4897 111.34 59.3297 110.02C60.1564 108.7 61.5364 108.04 63.4697 108.04C65.403 108.04 66.7897 108.7 67.6297 110.02C68.4564 111.34 68.8697 113.16 68.8697 115.48ZM60.8297 115.48C60.8297 116.467 60.8964 117.293 61.0297 117.96C61.1497 118.64 61.403 119.193 61.7897 119.62C62.163 120.047 62.723 120.26 63.4697 120.26C64.2164 120.26 64.783 120.047 65.1697 119.62C65.543 119.193 65.7964 118.64 65.9297 117.96C66.0497 117.293 66.1097 116.467 66.1097 115.48C66.1097 114.467 66.0497 113.613 65.9297 112.92C65.8097 112.24 65.5564 111.687 65.1697 111.26C64.783 110.847 64.2164 110.64 63.4697 110.64C62.723 110.64 62.1564 110.847 61.7697 111.26C61.383 111.687 61.1297 112.24 61.0097 112.92C60.8897 113.613 60.8297 114.467 60.8297 115.48Z" fill="#EAEAEC"/>
<path d="M76.4558 120L76.9558 120L76.9558 119.5L76.4558 119.5L76.4558 120ZM76.4558 122.58L76.4558 123.08L76.9558 123.08L76.9558 122.58L76.4558 122.58ZM71.6358 122.58L71.1358 122.58L71.1358 123.08L71.6358 123.08L71.6358 122.58ZM71.6358 108L71.6358 107.5L71.1358 107.5L71.1358 108L71.6358 108ZM74.5158 108L75.0158 108L75.0158 107.5L74.5158 107.5L74.5158 108ZM74.5158 120L74.0158 120L74.0158 120.5L74.5158 120.5L74.5158 120ZM76.4558 120L75.9558 120L75.9558 122.58L76.4558 122.58L76.9558 122.58L76.9558 120L76.4558 120ZM76.4558 122.58L76.4558 122.08L71.6358 122.08L71.6358 122.58L71.6358 123.08L76.4558 123.08L76.4558 122.58ZM71.6358 122.58L72.1358 122.58L72.1358 108L71.6358 108L71.1358 108L71.1358 122.58L71.6358 122.58ZM71.6358 108L71.6358 108.5L74.5158 108.5L74.5158 108L74.5158 107.5L71.6358 107.5L71.6358 108ZM74.5158 108L74.0158 108L74.0158 120L74.5158 120L75.0158 120L75.0158 108L74.5158 108ZM74.5158 120L74.5158 120.5L76.4558 120.5L76.4558 120L76.4558 119.5L74.5158 119.5L74.5158 120ZM67.6297 120.9L68.0503 121.17L68.0522 121.167L67.6297 120.9ZM59.3297 120.9L59.7522 120.633L59.7503 120.63L59.3297 120.9ZM59.3297 110.02L59.7515 110.288L59.7534 110.285L59.3297 110.02ZM67.6297 110.02L68.0535 109.755L68.0515 109.752L67.6297 110.02ZM61.0297 117.96L61.5222 117.873L61.52 117.862L61.0297 117.96ZM61.7897 119.62L62.166 119.291L62.1602 119.284L61.7897 119.62ZM65.1697 119.62L65.5402 119.956L65.546 119.949L65.1697 119.62ZM65.9297 117.96L66.4204 118.056L66.4218 118.049L65.9297 117.96ZM65.9297 112.92L66.4224 112.835L66.4221 112.833L65.9297 112.92ZM65.1697 111.26L65.5402 110.924L65.5348 110.918L65.1697 111.26ZM61.7697 111.26L61.4045 110.918L61.3992 110.924L61.7697 111.26ZM61.0097 112.92L60.5173 112.833L60.517 112.835L61.0097 112.92ZM68.8697 115.48L68.3697 115.48C68.3697 117.736 67.9641 119.436 67.2071 120.633L67.6297 120.9L68.0522 121.167C68.9486 119.75 69.3697 117.838 69.3697 115.48L68.8697 115.48ZM67.6297 120.9L67.2091 120.63C66.4842 121.757 65.2805 122.36 63.4697 122.36L63.4697 122.86L63.4697 123.36C65.5256 123.36 67.0952 122.656 68.0503 121.17L67.6297 120.9ZM63.4697 122.86L63.4697 122.36C61.6586 122.36 60.4637 121.757 59.7522 120.633L59.3297 120.9L58.9071 121.167C59.849 122.656 61.4141 123.36 63.4697 123.36L63.4697 122.86ZM59.3297 120.9L59.7503 120.63C58.9815 119.434 58.5697 117.734 58.5697 115.48L58.0697 115.48L57.5697 115.48C57.5697 117.839 57.9978 119.753 58.9091 121.17L59.3297 120.9ZM58.0697 115.48L58.5697 115.48C58.5697 113.212 58.9816 111.498 59.7515 110.288L59.3297 110.02L58.9079 109.752C57.9978 111.182 57.5697 113.108 57.5697 115.48L58.0697 115.48ZM59.3297 110.02L59.7534 110.285C60.4659 109.148 61.6608 108.54 63.4697 108.54L63.4697 108.04L63.4697 107.54C61.4119 107.54 59.8468 108.252 58.9059 109.755L59.3297 110.02ZM63.4697 108.04L63.4697 108.54C65.2783 108.54 66.482 109.148 67.2079 110.288L67.6297 110.02L68.0515 109.752C67.0974 108.252 65.5277 107.54 63.4697 107.54L63.4697 108.04ZM67.6297 110.02L67.2059 110.285C67.9641 111.496 68.3697 113.211 68.3697 115.48L68.8697 115.48L69.3697 115.48C69.3697 113.109 68.9487 111.184 68.0534 109.755L67.6297 110.02ZM60.8297 115.48L60.3297 115.48C60.3297 116.486 60.3974 117.348 60.5394 118.058L61.0297 117.96L61.52 117.862C61.3953 117.238 61.3297 116.447 61.3297 115.48L60.8297 115.48ZM61.0297 117.96L60.5373 118.047C60.6704 118.801 60.9576 119.446 61.4192 119.956L61.7897 119.62L62.1602 119.284C61.8484 118.94 61.629 118.479 61.5221 117.873L61.0297 117.96ZM61.7897 119.62L61.4134 119.949C61.9095 120.516 62.6273 120.76 63.4697 120.76L63.4697 120.26L63.4697 119.76C62.8187 119.76 62.4165 119.577 62.166 119.291L61.7897 119.62ZM63.4697 120.26L63.4697 120.76C64.3131 120.76 65.0325 120.516 65.5402 119.956L65.1697 119.62L64.7992 119.284C64.5335 119.577 64.1196 119.76 63.4697 119.76L63.4697 120.26ZM65.1697 119.62L65.546 119.949C65.9889 119.443 66.2738 118.803 66.4203 118.056L65.9297 117.96L65.439 117.864C65.3189 118.477 65.0972 118.944 64.7934 119.291L65.1697 119.62ZM65.9297 117.96L66.4218 118.049C66.5488 117.343 66.6097 116.484 66.6097 115.48L66.1097 115.48L65.6097 115.48C65.6097 116.449 65.5506 117.244 65.4376 117.871L65.9297 117.96ZM66.1097 115.48L66.6097 115.48C66.6097 114.449 66.5488 113.566 66.4224 112.835L65.9297 112.92L65.437 113.005C65.5505 113.661 65.6097 114.484 65.6097 115.48L66.1097 115.48ZM65.9297 112.92L66.4221 112.833C66.289 112.079 66.0017 111.434 65.5402 110.924L65.1697 111.26L64.7992 111.596C65.111 111.94 65.3304 112.401 65.4373 113.007L65.9297 112.92ZM65.1697 111.26L65.5348 110.918C65.0261 110.375 64.3085 110.14 63.4697 110.14L63.4697 110.64L63.4697 111.14C64.1243 111.14 64.54 111.319 64.8046 111.602L65.1697 111.26ZM63.4697 110.64L63.4697 110.14C62.6309 110.14 61.9133 110.375 61.4046 110.918L61.7697 111.26L62.1348 111.602C62.3994 111.319 62.8151 111.14 63.4697 111.14L63.4697 110.64ZM61.7697 111.26L61.3992 110.924C60.9376 111.434 60.6504 112.079 60.5173 112.833L61.0097 112.92L61.5021 113.007C61.609 112.401 61.8284 111.94 62.1402 111.596L61.7697 111.26ZM61.0097 112.92L60.517 112.835C60.3905 113.566 60.3297 114.449 60.3297 115.48L60.8297 115.48L61.3297 115.48C61.3297 114.484 61.3888 113.661 61.5024 113.005L61.0097 112.92Z" fill="#1E1E1E" mask="url(#path-7-outside-2_2207_149)"/>
</g>
<g filter="url(#filter2_d_2207_149)">
<mask id="path-9-outside-3_2207_149" maskUnits="userSpaceOnUse" x="25" y="51" width="42" height="34" fill="black">
<rect fill="white" x="25" y="51" width="42" height="34"/>
<path d="M26.8274 58.8V53.382H36.9494V84H30.9014V58.8H26.8274ZM42.7582 68.292C42.7582 63.448 43.6262 59.654 45.3622 56.91C47.1262 54.166 50.0382 52.794 54.0982 52.794C58.1582 52.794 61.0562 54.166 62.7922 56.91C64.5562 59.654 65.4382 63.448 65.4382 68.292C65.4382 73.164 64.5562 76.986 62.7922 79.758C61.0562 82.53 58.1582 83.916 54.0982 83.916C50.0382 83.916 47.1262 82.53 45.3622 79.758C43.6262 76.986 42.7582 73.164 42.7582 68.292ZM59.6422 68.292C59.6422 66.22 59.5022 64.484 59.2222 63.084C58.9702 61.656 58.4382 60.494 57.6262 59.598C56.8422 58.702 55.6662 58.254 54.0982 58.254C52.5302 58.254 51.3402 58.702 50.5282 59.598C49.7442 60.494 49.2122 61.656 48.9322 63.084C48.6802 64.484 48.5542 66.22 48.5542 68.292C48.5542 70.42 48.6802 72.212 48.9322 73.668C49.1842 75.096 49.7162 76.258 50.5282 77.154C51.3402 78.022 52.5302 78.456 54.0982 78.456C55.6662 78.456 56.8562 78.022 57.6682 77.154C58.4802 76.258 59.0122 75.096 59.2642 73.668C59.5162 72.212 59.6422 70.42 59.6422 68.292Z"/>
</mask>
<path d="M26.8274 58.8V53.382H36.9494V84H30.9014V58.8H26.8274ZM42.7582 68.292C42.7582 63.448 43.6262 59.654 45.3622 56.91C47.1262 54.166 50.0382 52.794 54.0982 52.794C58.1582 52.794 61.0562 54.166 62.7922 56.91C64.5562 59.654 65.4382 63.448 65.4382 68.292C65.4382 73.164 64.5562 76.986 62.7922 79.758C61.0562 82.53 58.1582 83.916 54.0982 83.916C50.0382 83.916 47.1262 82.53 45.3622 79.758C43.6262 76.986 42.7582 73.164 42.7582 68.292ZM59.6422 68.292C59.6422 66.22 59.5022 64.484 59.2222 63.084C58.9702 61.656 58.4382 60.494 57.6262 59.598C56.8422 58.702 55.6662 58.254 54.0982 58.254C52.5302 58.254 51.3402 58.702 50.5282 59.598C49.7442 60.494 49.2122 61.656 48.9322 63.084C48.6802 64.484 48.5542 66.22 48.5542 68.292C48.5542 70.42 48.6802 72.212 48.9322 73.668C49.1842 75.096 49.7162 76.258 50.5282 77.154C51.3402 78.022 52.5302 78.456 54.0982 78.456C55.6662 78.456 56.8562 78.022 57.6682 77.154C58.4802 76.258 59.0122 75.096 59.2642 73.668C59.5162 72.212 59.6422 70.42 59.6422 68.292Z" fill="#EAEAEC"/>
<path d="M26.8274 58.8H25.8274V59.8H26.8274V58.8ZM26.8274 53.382V52.382H25.8274V53.382H26.8274ZM36.9494 53.382H37.9494V52.382H36.9494V53.382ZM36.9494 84V85H37.9494V84H36.9494ZM30.9014 84H29.9014V85H30.9014V84ZM30.9014 58.8H31.9014V57.8H30.9014V58.8ZM26.8274 58.8H27.8274V53.382H26.8274H25.8274V58.8H26.8274ZM26.8274 53.382V54.382H36.9494V53.382V52.382H26.8274V53.382ZM36.9494 53.382H35.9494V84H36.9494H37.9494V53.382H36.9494ZM36.9494 84V83H30.9014V84V85H36.9494V84ZM30.9014 84H31.9014V58.8H30.9014H29.9014V84H30.9014ZM30.9014 58.8V57.8H26.8274V58.8V59.8H30.9014V58.8ZM45.3622 56.91L44.521 56.3692L44.5171 56.3754L45.3622 56.91ZM62.7922 56.91L61.9471 57.4447L61.951 57.4508L62.7922 56.91ZM62.7922 79.758L61.9485 79.2211L61.9447 79.2272L62.7922 79.758ZM45.3622 79.758L44.5147 80.2888L44.5186 80.2949L45.3622 79.758ZM59.2222 63.084L58.2374 63.2578L58.2394 63.269L58.2416 63.2801L59.2222 63.084ZM57.6262 59.598L56.8737 60.2565L56.8794 60.2631L56.8852 60.2695L57.6262 59.598ZM50.5282 59.598L49.7872 58.9265L49.7814 58.9329L49.7757 58.9395L50.5282 59.598ZM48.9322 63.084L47.9509 62.8916L47.9494 62.8992L47.948 62.9068L48.9322 63.084ZM48.9322 73.668L47.9469 73.8385L47.9474 73.8418L48.9322 73.668ZM50.5282 77.154L49.7872 77.8255L49.7926 77.8314L49.798 77.8372L50.5282 77.154ZM57.6682 77.154L58.3985 77.8372L58.4039 77.8314L58.4092 77.8255L57.6682 77.154ZM59.2642 73.668L60.249 73.8418L60.2496 73.8385L59.2642 73.668ZM42.7582 68.292H43.7582C43.7582 63.5502 44.6107 59.9683 46.2073 57.4446L45.3622 56.91L44.5171 56.3754C42.6417 59.3397 41.7582 63.3458 41.7582 68.292H42.7582ZM45.3622 56.91L46.2034 57.4508C47.7373 55.0647 50.2834 53.794 54.0982 53.794V52.794V51.794C49.7931 51.794 46.5152 53.2673 44.521 56.3692L45.3622 56.91ZM54.0982 52.794V53.794C57.9136 53.794 60.4414 55.0647 61.9471 57.4446L62.7922 56.91L63.6373 56.3754C61.671 53.2673 58.4028 51.794 54.0982 51.794V52.794ZM62.7922 56.91L61.951 57.4508C63.5726 59.9731 64.4382 63.5525 64.4382 68.292H65.4382H66.4382C66.4382 63.3435 65.5399 59.3349 63.6334 56.3692L62.7922 56.91ZM65.4382 68.292H64.4382C64.4382 73.06 63.5724 76.6694 61.9486 79.2211L62.7922 79.758L63.6359 80.2949C65.5401 77.3026 66.4382 73.268 66.4382 68.292H65.4382ZM62.7922 79.758L61.9447 79.2272C60.4371 81.6346 57.9093 82.916 54.0982 82.916V83.916V84.916C58.4071 84.916 61.6754 83.4254 63.6397 80.2888L62.7922 79.758ZM54.0982 83.916V82.916C50.2876 82.916 47.7416 81.6344 46.2059 79.2211L45.3622 79.758L44.5186 80.2949C46.5108 83.4256 49.7888 84.916 54.0982 84.916V83.916ZM45.3622 79.758L46.2097 79.2272C44.6108 76.6741 43.7582 73.0622 43.7582 68.292H42.7582H41.7582C41.7582 73.2658 42.6416 77.2979 44.5147 80.2888L45.3622 79.758ZM59.6422 68.292H60.6422C60.6422 66.1808 60.5001 64.3742 60.2028 62.8879L59.2222 63.084L58.2416 63.2801C58.5044 64.5938 58.6422 66.2592 58.6422 68.292H59.6422ZM59.2222 63.084L60.207 62.9102C59.9288 61.3339 59.329 59.9877 58.3672 58.9265L57.6262 59.598L56.8852 60.2695C57.5475 61.0003 58.0116 61.978 58.2374 63.2578L59.2222 63.084ZM57.6262 59.598L58.3788 58.9395C57.3493 57.7629 55.8577 57.254 54.0982 57.254V58.254V59.254C55.4748 59.254 56.3352 59.6411 56.8737 60.2565L57.6262 59.598ZM54.0982 58.254V57.254C52.3367 57.254 50.8412 57.7635 49.7872 58.9265L50.5282 59.598L51.2692 60.2695C51.8393 59.6405 52.7237 59.254 54.0982 59.254V58.254ZM50.5282 59.598L49.7757 58.9395C48.8525 59.9945 48.2573 61.329 47.9509 62.8916L48.9322 63.084L49.9135 63.2764C50.1672 61.983 50.636 60.9935 51.2808 60.2565L50.5282 59.598ZM48.9322 63.084L47.948 62.9068C47.682 64.3851 47.5542 66.1849 47.5542 68.292H48.5542H49.5542C49.5542 66.2551 49.6785 64.5829 49.9164 63.2612L48.9322 63.084ZM48.5542 68.292H47.5542C47.5542 70.4546 47.6819 72.3076 47.9469 73.8385L48.9322 73.668L49.9176 73.4975C49.6785 72.1164 49.5542 70.3854 49.5542 68.292H48.5542ZM48.9322 73.668L47.9474 73.8418C48.2256 75.418 48.8255 76.7643 49.7872 77.8255L50.5282 77.154L51.2692 76.4825C50.607 75.7517 50.1428 74.7739 49.917 73.4942L48.9322 73.668ZM50.5282 77.154L49.798 77.8372C50.8542 78.9662 52.346 79.456 54.0982 79.456V78.456V77.456C52.7144 77.456 51.8263 77.0778 51.2585 76.4708L50.5282 77.154ZM54.0982 78.456V79.456C55.8504 79.456 57.3423 78.9662 58.3985 77.8372L57.6682 77.154L56.938 76.4708C56.3702 77.0778 55.482 77.456 54.0982 77.456V78.456ZM57.6682 77.154L58.4092 77.8255C59.371 76.7643 59.9708 75.418 60.249 73.8418L59.2642 73.668L58.2794 73.4942C58.0536 74.774 57.5895 75.7517 56.9272 76.4825L57.6682 77.154ZM59.2642 73.668L60.2496 73.8385C60.5145 72.3076 60.6422 70.4546 60.6422 68.292H59.6422H58.6422C58.6422 70.3854 58.5179 72.1164 58.2789 73.4975L59.2642 73.668Z" fill="#1E1E1E" mask="url(#path-9-outside-3_2207_149)"/>
</g>
</g>
<defs>
<filter id="filter0_d_2207_149" x="7.04419" y="16.64" width="20.3861" height="16.86" filterUnits="userSpaceOnUse" color-interpolation-filters="sRGB">
<feFlood flood-opacity="0" result="BackgroundImageFix"/>
<feColorMatrix in="SourceAlpha" type="matrix" values="0 0 0 0 0 0 0 0 0 0 0 0 0 0 0 0 0 0 127 0" result="hardAlpha"/>
<feOffset dx="-1" dy="1"/>
<feComposite in2="hardAlpha" operator="out"/>
<feColorMatrix type="matrix" values="0 0 0 0 0 0 0 0 0 0 0 0 0 0 0 0 0 0 0.8 0"/>
<feBlend mode="normal" in2="BackgroundImageFix" result="effect1_dropShadow_2207_149"/>
<feBlend mode="normal" in="SourceGraphic" in2="effect1_dropShadow_2207_149" result="shape"/>
</filter>
<filter id="filter1_d_2207_149" x="56.5697" y="107.5" width="20.3861" height="16.8601" filterUnits="userSpaceOnUse" color-interpolation-filters="sRGB">
<feFlood flood-opacity="0" result="BackgroundImageFix"/>
<feColorMatrix in="SourceAlpha" type="matrix" values="0 0 0 0 0 0 0 0 0 0 0 0 0 0 0 0 0 0 127 0" result="hardAlpha"/>
<feOffset dx="-1" dy="1"/>
<feComposite in2="hardAlpha" operator="out"/>
<feColorMatrix type="matrix" values="0 0 0 0 0 0 0 0 0 0 0 0 0 0 0 0 0 0 0.8 0"/>
<feBlend mode="normal" in2="BackgroundImageFix" result="effect1_dropShadow_2207_149"/>
<feBlend mode="normal" in="SourceGraphic" in2="effect1_dropShadow_2207_149" result="shape"/>
</filter>
<filter id="filter2_d_2207_149" x="23.8275" y="51.7939" width="42.6108" height="35.2061" filterUnits="userSpaceOnUse" color-interpolation-filters="sRGB">
<feFlood flood-opacity="0" result="BackgroundImageFix"/>
<feColorMatrix in="SourceAlpha" type="matrix" values="0 0 0 0 0 0 0 0 0 0 0 0 0 0 0 0 0 0 127 0" result="hardAlpha"/>
<feOffset dx="-2" dy="2"/>
<feComposite in2="hardAlpha" operator="out"/>
<feColorMatrix type="matrix" values="0 0 0 0 0 0 0 0 0 0 0 0 0 0 0 0 0 0 0.8 0"/>
<feBlend mode="normal" in2="BackgroundImageFix" result="effect1_dropShadow_2207_149"/>
<feBlend mode="normal" in="SourceGraphic" in2="effect1_dropShadow_2207_149" result="shape"/>
</filter>
<clipPath id="clip0_2207_149">
<rect width="85" height="140" rx="8" fill="white"/>
</clipPath>
</defs>
</svg>
