<svg width="85" height="140" viewBox="0 0 85 140" fill="none" xmlns="http://www.w3.org/2000/svg">
<g clip-path="url(#clip0_2207_181)">
<rect width="85" height="140" rx="8" fill="#EAEAEC"/>
<rect x="5" y="8" width="75" height="124" rx="6" fill="#075CA9"/>
<ellipse cx="42.7084" cy="70.0481" rx="65.4861" ry="30.7695" transform="rotate(-59.5565 42.7084 70.0481)" fill="#EAEAEC"/>
<ellipse cx="42.7303" cy="69.6278" rx="57.8329" ry="27.1735" transform="rotate(-59.5565 42.7303 69.6278)" fill="#075CA9"/>
<g filter="url(#filter0_d_2207_181)">
<mask id="path-5-outside-1_2207_181" maskUnits="userSpaceOnUse" x="9" y="16" width="19" height="17" fill="black">
<rect fill="white" x="9" y="16" width="19" height="17"/>
<path d="M9.98953 20V17.42H14.8095V32H11.9295V20H9.98953ZM18.4556 28.84C19.7356 27.7733 20.7556 26.8867 21.5156 26.18C22.2756 25.46 22.909 24.7133 23.4156 23.94C23.9223 23.1667 24.1756 22.4067 24.1756 21.66C24.1756 20.98 24.0156 20.4467 23.6956 20.06C23.3756 19.6733 22.8823 19.48 22.2156 19.48C21.549 19.48 21.0356 19.7067 20.6756 20.16C20.3156 20.6 20.129 21.2067 20.1156 21.98H17.3956C17.449 20.38 17.9223 19.1667 18.8156 18.34C19.7223 17.5133 20.869 17.1 22.2556 17.1C23.7756 17.1 24.9423 17.5067 25.7556 18.32C26.569 19.12 26.9756 20.18 26.9756 21.5C26.9756 22.54 26.6956 23.5333 26.1356 24.48C25.5756 25.4267 24.9356 26.2533 24.2156 26.96C23.4956 27.6533 22.5556 28.4933 21.3956 29.48H27.2956V31.8H17.4156V29.72L18.4556 28.84Z"/>
</mask>
<path d="M9.98953 20V17.42H14.8095V32H11.9295V20H9.98953ZM18.4556 28.84C19.7356 27.7733 20.7556 26.8867 21.5156 26.18C22.2756 25.46 22.909 24.7133 23.4156 23.94C23.9223 23.1667 24.1756 22.4067 24.1756 21.66C24.1756 20.98 24.0156 20.4467 23.6956 20.06C23.3756 19.6733 22.8823 19.48 22.2156 19.48C21.549 19.48 21.0356 19.7067 20.6756 20.16C20.3156 20.6 20.129 21.2067 20.1156 21.98H17.3956C17.449 20.38 17.9223 19.1667 18.8156 18.34C19.7223 17.5133 20.869 17.1 22.2556 17.1C23.7756 17.1 24.9423 17.5067 25.7556 18.32C26.569 19.12 26.9756 20.18 26.9756 21.5C26.9756 22.54 26.6956 23.5333 26.1356 24.48C25.5756 25.4267 24.9356 26.2533 24.2156 26.96C23.4956 27.6533 22.5556 28.4933 21.3956 29.48H27.2956V31.8H17.4156V29.72L18.4556 28.84Z" fill="#EAEAEC"/>
<path d="M9.98953 20H9.48953V20.5H9.98953V20ZM9.98953 17.42V16.92H9.48953V17.42H9.98953ZM14.8095 17.42H15.3095V16.92H14.8095V17.42ZM14.8095 32V32.5H15.3095V32H14.8095ZM11.9295 32H11.4295V32.5H11.9295V32ZM11.9295 20H12.4295V19.5H11.9295V20ZM9.98953 20H10.4895V17.42H9.98953H9.48953V20H9.98953ZM9.98953 17.42V17.92H14.8095V17.42V16.92H9.98953V17.42ZM14.8095 17.42H14.3095V32H14.8095H15.3095V17.42H14.8095ZM14.8095 32V31.5H11.9295V32V32.5H14.8095V32ZM11.9295 32H12.4295V20H11.9295H11.4295V32H11.9295ZM11.9295 20V19.5H9.98953V20V20.5H11.9295V20ZM18.4556 28.84L18.1355 28.4559L18.1327 28.4583L18.4556 28.84ZM21.5156 26.18L21.8561 26.5462L21.8595 26.543L21.5156 26.18ZM23.4156 23.94L23.8339 24.214L23.8339 24.214L23.4156 23.94ZM23.6956 20.06L23.3104 20.3788L23.3104 20.3788L23.6956 20.06ZM20.6756 20.16L21.0626 20.4767L21.0672 20.4709L20.6756 20.16ZM20.1156 21.98V22.48H20.6071L20.6156 21.9886L20.1156 21.98ZM17.3956 21.98L16.8959 21.9633L16.8787 22.48H17.3956V21.98ZM18.8156 18.34L18.4787 17.9705L18.476 17.973L18.8156 18.34ZM25.7556 18.32L25.4021 18.6736L25.405 18.6765L25.7556 18.32ZM26.1356 24.48L26.566 24.7346L26.566 24.7346L26.1356 24.48ZM24.2156 26.96L24.5625 27.3202L24.5659 27.3168L24.2156 26.96ZM21.3956 29.48L21.0717 29.0991L20.0361 29.98H21.3956V29.48ZM27.2956 29.48H27.7956V28.98H27.2956V29.48ZM27.2956 31.8V32.3H27.7956V31.8H27.2956ZM17.4156 31.8H16.9156V32.3H17.4156V31.8ZM17.4156 29.72L17.0927 29.3383L16.9156 29.4881V29.72H17.4156ZM18.4556 28.84L18.7757 29.2241C20.0591 28.1547 21.0867 27.2615 21.8561 26.5462L21.5156 26.18L21.1752 25.8138C20.4245 26.5118 19.4122 27.392 18.1355 28.4559L18.4556 28.84ZM21.5156 26.18L21.8595 26.543C22.644 25.7998 23.3034 25.0237 23.8339 24.214L23.4156 23.94L22.9974 23.666C22.5146 24.4029 21.9072 25.1202 21.1718 25.817L21.5156 26.18ZM23.4156 23.94L23.8339 24.214C24.3811 23.3787 24.6756 22.5249 24.6756 21.66H24.1756H23.6756C23.6756 22.2884 23.4635 22.9546 22.9974 23.666L23.4156 23.94ZM24.1756 21.66H24.6756C24.6756 20.9049 24.4977 20.2449 24.0808 19.7412L23.6956 20.06L23.3104 20.3788C23.5336 20.6484 23.6756 21.0551 23.6756 21.66H24.1756ZM23.6956 20.06L24.0808 19.7412C23.6369 19.2049 22.9791 18.98 22.2156 18.98V19.48V19.98C22.7855 19.98 23.1143 20.1418 23.3104 20.3788L23.6956 20.06ZM22.2156 19.48V18.98C21.4225 18.98 20.754 19.2573 20.2841 19.8491L20.6756 20.16L21.0672 20.4709C21.3172 20.1561 21.6754 19.98 22.2156 19.98V19.48ZM20.6756 20.16L20.2886 19.8434C19.8356 20.3971 19.6303 21.1258 19.6157 21.9714L20.1156 21.98L20.6156 21.9886C20.6276 21.2875 20.7957 20.8029 21.0626 20.4766L20.6756 20.16ZM20.1156 21.98V21.48H17.3956V21.98V22.48H20.1156V21.98ZM17.3956 21.98L17.8953 21.9967C17.9457 20.4864 18.3879 19.417 19.1552 18.707L18.8156 18.34L18.476 17.973C17.4566 18.9163 16.9522 20.2736 16.8959 21.9633L17.3956 21.98ZM18.8156 18.34L19.1525 18.7095C19.9549 17.9778 20.9762 17.6 22.2556 17.6V17.1V16.6C20.7618 16.6 19.4896 17.0488 18.4787 17.9705L18.8156 18.34ZM22.2556 17.1V17.6C23.6872 17.6 24.7097 17.9812 25.4021 18.6736L25.7556 18.32L26.1092 17.9664C25.1749 17.0321 23.8641 16.6 22.2556 16.6V17.1ZM25.7556 18.32L25.405 18.6765C26.1076 19.3676 26.4756 20.2912 26.4756 21.5H26.9756H27.4756C27.4756 20.0688 27.0303 18.8724 26.1062 17.9635L25.7556 18.32ZM26.9756 21.5H26.4756C26.4756 22.4452 26.2224 23.3512 25.7053 24.2254L26.1356 24.48L26.566 24.7346C27.1688 23.7154 27.4756 22.6348 27.4756 21.5H26.9756ZM26.1356 24.48L25.7053 24.2254C25.1654 25.138 24.5517 25.9296 23.8654 26.6032L24.2156 26.96L24.5659 27.3168C25.3196 26.5771 25.9858 25.7153 26.566 24.7346L26.1356 24.48ZM24.2156 26.96L23.8688 26.5998C23.159 27.2834 22.2274 28.1161 21.0717 29.0991L21.3956 29.48L21.7196 29.8609C22.8838 28.8706 23.8323 28.0233 24.5624 27.3202L24.2156 26.96ZM21.3956 29.48V29.98H27.2956V29.48V28.98H21.3956V29.48ZM27.2956 29.48H26.7956V31.8H27.2956H27.7956V29.48H27.2956ZM27.2956 31.8V31.3H17.4156V31.8V32.3H27.2956V31.8ZM17.4156 31.8H17.9156V29.72H17.4156H16.9156V31.8H17.4156ZM17.4156 29.72L17.7386 30.1017L18.7786 29.2217L18.4556 28.84L18.1327 28.4583L17.0927 29.3383L17.4156 29.72Z" fill="#1E1E1E" mask="url(#path-5-outside-1_2207_181)"/>
</g>
<g filter="url(#filter1_d_2207_181)">
<mask id="path-7-outside-2_2207_181" maskUnits="userSpaceOnUse" x="57" y="107" width="19" height="17" fill="black">
<rect fill="white" x="57" y="107" width="19" height="17"/>
<path d="M75.0105 120L75.0105 122.58L70.1905 122.58L70.1905 108L73.0705 108L73.0705 120L75.0105 120ZM66.5444 111.16C65.2644 112.227 64.2444 113.113 63.4844 113.82C62.7244 114.54 62.091 115.287 61.5844 116.06C61.0777 116.833 60.8244 117.593 60.8244 118.34C60.8244 119.02 60.9844 119.553 61.3044 119.94C61.6244 120.327 62.1177 120.52 62.7844 120.52C63.451 120.52 63.9644 120.293 64.3244 119.84C64.6844 119.4 64.871 118.793 64.8844 118.02L67.6044 118.02C67.551 119.62 67.0777 120.833 66.1844 121.66C65.2777 122.487 64.131 122.9 62.7444 122.9C61.2244 122.9 60.0577 122.493 59.2444 121.68C58.431 120.88 58.0244 119.82 58.0244 118.5C58.0244 117.46 58.3044 116.467 58.8644 115.52C59.4244 114.573 60.0644 113.747 60.7844 113.04C61.5044 112.347 62.4444 111.507 63.6044 110.52L57.7044 110.52L57.7044 108.2L67.5844 108.2L67.5844 110.28L66.5444 111.16Z"/>
</mask>
<path d="M75.0105 120L75.0105 122.58L70.1905 122.58L70.1905 108L73.0705 108L73.0705 120L75.0105 120ZM66.5444 111.16C65.2644 112.227 64.2444 113.113 63.4844 113.82C62.7244 114.54 62.091 115.287 61.5844 116.06C61.0777 116.833 60.8244 117.593 60.8244 118.34C60.8244 119.02 60.9844 119.553 61.3044 119.94C61.6244 120.327 62.1177 120.52 62.7844 120.52C63.451 120.52 63.9644 120.293 64.3244 119.84C64.6844 119.4 64.871 118.793 64.8844 118.02L67.6044 118.02C67.551 119.62 67.0777 120.833 66.1844 121.66C65.2777 122.487 64.131 122.9 62.7444 122.9C61.2244 122.9 60.0577 122.493 59.2444 121.68C58.431 120.88 58.0244 119.82 58.0244 118.5C58.0244 117.46 58.3044 116.467 58.8644 115.52C59.4244 114.573 60.0644 113.747 60.7844 113.04C61.5044 112.347 62.4444 111.507 63.6044 110.52L57.7044 110.52L57.7044 108.2L67.5844 108.2L67.5844 110.28L66.5444 111.16Z" fill="#EAEAEC"/>
<path d="M75.0105 120L75.5105 120L75.5105 119.5L75.0105 119.5L75.0105 120ZM75.0105 122.58L75.0105 123.08L75.5105 123.08L75.5105 122.58L75.0105 122.58ZM70.1905 122.58L69.6905 122.58L69.6905 123.08L70.1905 123.08L70.1905 122.58ZM70.1905 108L70.1905 107.5L69.6905 107.5L69.6905 108L70.1905 108ZM73.0705 108L73.5705 108L73.5705 107.5L73.0705 107.5L73.0705 108ZM73.0705 120L72.5705 120L72.5705 120.5L73.0705 120.5L73.0705 120ZM75.0105 120L74.5105 120L74.5105 122.58L75.0105 122.58L75.5105 122.58L75.5105 120L75.0105 120ZM75.0105 122.58L75.0105 122.08L70.1905 122.08L70.1905 122.58L70.1905 123.08L75.0105 123.08L75.0105 122.58ZM70.1905 122.58L70.6905 122.58L70.6905 108L70.1905 108L69.6905 108L69.6905 122.58L70.1905 122.58ZM70.1905 108L70.1905 108.5L73.0705 108.5L73.0705 108L73.0705 107.5L70.1905 107.5L70.1905 108ZM73.0705 108L72.5705 108L72.5705 120L73.0705 120L73.5705 120L73.5705 108L73.0705 108ZM73.0705 120L73.0705 120.5L75.0105 120.5L75.0105 120L75.0105 119.5L73.0705 119.5L73.0705 120ZM66.5444 111.16L66.8645 111.544L66.8673 111.542L66.5444 111.16ZM63.4844 113.82L63.1439 113.454L63.1405 113.457L63.4844 113.82ZM61.5844 116.06L61.1661 115.786L61.1661 115.786L61.5844 116.06ZM61.3044 119.94L61.6896 119.621L61.6896 119.621L61.3044 119.94ZM64.3244 119.84L63.9374 119.523L63.9328 119.529L64.3244 119.84ZM64.8844 118.02L64.8844 117.52L64.3929 117.52L64.3845 118.011L64.8844 118.02ZM67.6044 118.02L68.1041 118.037L68.1213 117.52L67.6044 117.52L67.6044 118.02ZM66.1844 121.66L66.5213 122.029L66.524 122.027L66.1844 121.66ZM59.2444 121.68L59.5979 121.326L59.595 121.324L59.2444 121.68ZM58.8644 115.52L58.434 115.265L58.434 115.265L58.8644 115.52ZM60.7844 113.04L60.4375 112.68L60.4341 112.683L60.7844 113.04ZM63.6044 110.52L63.9283 110.901L64.9639 110.02L63.6044 110.02L63.6044 110.52ZM57.7044 110.52L57.2044 110.52L57.2044 111.02L57.7044 111.02L57.7044 110.52ZM57.7044 108.2L57.7044 107.7L57.2044 107.7L57.2044 108.2L57.7044 108.2ZM67.5844 108.2L68.0844 108.2L68.0844 107.7L67.5844 107.7L67.5844 108.2ZM67.5844 110.28L67.9073 110.662L68.0844 110.512L68.0844 110.28L67.5844 110.28ZM66.5444 111.16L66.2243 110.776C64.9409 111.845 63.9133 112.738 63.1439 113.454L63.4844 113.82L63.8248 114.186C64.5755 113.488 65.5878 112.608 66.8645 111.544L66.5444 111.16ZM63.4844 113.82L63.1405 113.457C62.356 114.2 61.6966 114.976 61.1661 115.786L61.5844 116.06L62.0026 116.334C62.4854 115.597 63.0928 114.88 63.8282 114.183L63.4844 113.82ZM61.5844 116.06L61.1661 115.786C60.6189 116.621 60.3244 117.475 60.3244 118.34L60.8244 118.34L61.3244 118.34C61.3244 117.712 61.5365 117.045 62.0026 116.334L61.5844 116.06ZM60.8244 118.34L60.3244 118.34C60.3244 119.095 60.5023 119.755 60.9192 120.259L61.3044 119.94L61.6896 119.621C61.4664 119.352 61.3244 118.945 61.3244 118.34L60.8244 118.34ZM61.3044 119.94L60.9192 120.259C61.3631 120.795 62.0209 121.02 62.7844 121.02L62.7844 120.52L62.7844 120.02C62.2145 120.02 61.8857 119.858 61.6896 119.621L61.3044 119.94ZM62.7844 120.52L62.7844 121.02C63.5775 121.02 64.246 120.743 64.7159 120.151L64.3244 119.84L63.9328 119.529C63.6828 119.844 63.3246 120.02 62.7844 120.02L62.7844 120.52ZM64.3244 119.84L64.7114 120.157C65.1644 119.603 65.3697 118.874 65.3843 118.029L64.8844 118.02L64.3845 118.011C64.3724 118.712 64.2043 119.197 63.9374 119.523L64.3244 119.84ZM64.8844 118.02L64.8844 118.52L67.6044 118.52L67.6044 118.02L67.6044 117.52L64.8844 117.52L64.8844 118.02ZM67.6044 118.02L67.1047 118.003C67.0543 119.514 66.6121 120.583 65.8448 121.293L66.1844 121.66L66.524 122.027C67.5434 121.084 68.0478 119.726 68.1041 118.037L67.6044 118.02ZM66.1844 121.66L65.8475 121.291C65.0451 122.022 64.0238 122.4 62.7444 122.4L62.7444 122.9L62.7444 123.4C64.2382 123.4 65.5104 122.951 66.5213 122.029L66.1844 121.66ZM62.7444 122.9L62.7444 122.4C61.3128 122.4 60.2903 122.019 59.5979 121.326L59.2444 121.68L58.8908 122.034C59.8251 122.968 61.1359 123.4 62.7444 123.4L62.7444 122.9ZM59.2444 121.68L59.595 121.324C58.8924 120.632 58.5244 119.709 58.5244 118.5L58.0244 118.5L57.5244 118.5C57.5244 119.931 57.9697 121.128 58.8938 122.036L59.2444 121.68ZM58.0244 118.5L58.5244 118.5C58.5244 117.555 58.7776 116.649 59.2947 115.775L58.8644 115.52L58.434 115.265C57.8312 116.285 57.5244 117.365 57.5244 118.5L58.0244 118.5ZM58.8644 115.52L59.2947 115.775C59.8346 114.862 60.4483 114.07 61.1346 113.397L60.7844 113.04L60.4341 112.683C59.6805 113.423 59.0142 114.285 58.434 115.265L58.8644 115.52ZM60.7844 113.04L61.1312 113.4C61.841 112.717 62.7726 111.884 63.9283 110.901L63.6044 110.52L63.2804 110.139C62.1162 111.129 61.1677 111.977 60.4376 112.68L60.7844 113.04ZM63.6044 110.52L63.6044 110.02L57.7044 110.02L57.7044 110.52L57.7044 111.02L63.6044 111.02L63.6044 110.52ZM57.7044 110.52L58.2044 110.52L58.2044 108.2L57.7044 108.2L57.2044 108.2L57.2044 110.52L57.7044 110.52ZM57.7044 108.2L57.7044 108.7L67.5844 108.7L67.5844 108.2L67.5844 107.7L57.7044 107.7L57.7044 108.2ZM67.5844 108.2L67.0844 108.2L67.0844 110.28L67.5844 110.28L68.0844 110.28L68.0844 108.2L67.5844 108.2ZM67.5844 110.28L67.2614 109.898L66.2214 110.778L66.5444 111.16L66.8673 111.542L67.9073 110.662L67.5844 110.28Z" fill="#1E1E1E" mask="url(#path-7-outside-2_2207_181)"/>
</g>
<g filter="url(#filter2_d_2207_181)">
<mask id="path-9-outside-3_2207_181" maskUnits="userSpaceOnUse" x="27" y="51" width="39" height="34" fill="black">
<rect fill="white" x="27" y="51" width="39" height="34"/>
<path d="M28.345 58.8V53.382H38.467V84H32.419V58.8H28.345ZM46.1238 77.364C48.8118 75.124 50.9538 73.262 52.5498 71.778C54.1458 70.266 55.4758 68.698 56.5398 67.074C57.6038 65.45 58.1358 63.854 58.1358 62.286C58.1358 60.858 57.7998 59.738 57.1278 58.926C56.4558 58.114 55.4198 57.708 54.0198 57.708C52.6198 57.708 51.5418 58.184 50.7858 59.136C50.0298 60.06 49.6378 61.334 49.6098 62.958H43.8978C44.0098 59.598 45.0038 57.05 46.8798 55.314C48.7838 53.578 51.1918 52.71 54.1038 52.71C57.2958 52.71 59.7458 53.564 61.4538 55.272C63.1618 56.952 64.0158 59.178 64.0158 61.95C64.0158 64.134 63.4278 66.22 62.2518 68.208C61.0758 70.196 59.7318 71.932 58.2198 73.416C56.7078 74.872 54.7338 76.636 52.2978 78.708H64.6878V83.58H43.9398V79.212L46.1238 77.364Z"/>
</mask>
<path d="M28.345 58.8V53.382H38.467V84H32.419V58.8H28.345ZM46.1238 77.364C48.8118 75.124 50.9538 73.262 52.5498 71.778C54.1458 70.266 55.4758 68.698 56.5398 67.074C57.6038 65.45 58.1358 63.854 58.1358 62.286C58.1358 60.858 57.7998 59.738 57.1278 58.926C56.4558 58.114 55.4198 57.708 54.0198 57.708C52.6198 57.708 51.5418 58.184 50.7858 59.136C50.0298 60.06 49.6378 61.334 49.6098 62.958H43.8978C44.0098 59.598 45.0038 57.05 46.8798 55.314C48.7838 53.578 51.1918 52.71 54.1038 52.71C57.2958 52.71 59.7458 53.564 61.4538 55.272C63.1618 56.952 64.0158 59.178 64.0158 61.95C64.0158 64.134 63.4278 66.22 62.2518 68.208C61.0758 70.196 59.7318 71.932 58.2198 73.416C56.7078 74.872 54.7338 76.636 52.2978 78.708H64.6878V83.58H43.9398V79.212L46.1238 77.364Z" fill="#EAEAEC"/>
<path d="M28.345 58.8H27.345V59.8H28.345V58.8ZM28.345 53.382V52.382H27.345V53.382H28.345ZM38.467 53.382H39.467V52.382H38.467V53.382ZM38.467 84V85H39.467V84H38.467ZM32.419 84H31.419V85H32.419V84ZM32.419 58.8H33.419V57.8H32.419V58.8ZM28.345 58.8H29.345V53.382H28.345H27.345V58.8H28.345ZM28.345 53.382V54.382H38.467V53.382V52.382H28.345V53.382ZM38.467 53.382H37.467V84H38.467H39.467V53.382H38.467ZM38.467 84V83H32.419V84V85H38.467V84ZM32.419 84H33.419V58.8H32.419H31.419V84H32.419ZM32.419 58.8V57.8H28.345V58.8V59.8H32.419V58.8ZM46.1238 77.364L45.4836 76.5958L45.4779 76.6006L46.1238 77.364ZM52.5498 71.778L53.2308 72.5104L53.2375 72.504L52.5498 71.778ZM56.5398 67.074L57.3763 67.622L57.3763 67.622L56.5398 67.074ZM57.1278 58.926L56.3574 59.5636L56.3574 59.5636L57.1278 58.926ZM50.7858 59.136L51.5598 59.7692L51.5644 59.7636L51.5689 59.7579L50.7858 59.136ZM49.6098 62.958V63.958H50.5927L50.6097 62.9752L49.6098 62.958ZM43.8978 62.958L42.8984 62.9247L42.8639 63.958H43.8978V62.958ZM46.8798 55.314L46.206 54.575L46.2006 54.58L46.8798 55.314ZM61.4538 55.272L60.7467 55.9791L60.7526 55.9849L61.4538 55.272ZM62.2518 68.208L63.1125 68.7171L63.1125 68.7171L62.2518 68.208ZM58.2198 73.416L58.9135 74.1364L58.9203 74.1297L58.2198 73.416ZM52.2978 78.708L51.6499 77.9463L49.5787 79.708H52.2978V78.708ZM64.6878 78.708H65.6878V77.708H64.6878V78.708ZM64.6878 83.58V84.58H65.6878V83.58H64.6878ZM43.9398 83.58H42.9398V84.58H43.9398V83.58ZM43.9398 79.212L43.2939 78.4486L42.9398 78.7482V79.212H43.9398ZM46.1238 77.364L46.764 78.1322C49.4587 75.8866 51.616 74.0117 53.2307 72.5103L52.5498 71.778L51.8689 71.0457C50.2916 72.5123 48.1649 74.3614 45.4836 76.5958L46.1238 77.364ZM52.5498 71.778L53.2375 72.504C54.8826 70.9455 56.2646 69.3188 57.3763 67.622L56.5398 67.074L55.7033 66.526C54.687 68.0772 53.409 69.5865 51.8621 71.052L52.5498 71.778ZM56.5398 67.074L57.3763 67.622C58.5215 65.8741 59.1358 64.0905 59.1358 62.286H58.1358H57.1358C57.1358 63.6175 56.6861 65.0259 55.7033 66.526L56.5398 67.074ZM58.1358 62.286H59.1358C59.1358 60.7078 58.7639 59.3345 57.8982 58.2884L57.1278 58.926L56.3574 59.5636C56.8357 60.1415 57.1358 61.0082 57.1358 62.286H58.1358ZM57.1278 58.926L57.8982 58.2884C56.9784 57.177 55.6134 56.708 54.0198 56.708V57.708V58.708C55.2262 58.708 55.9332 59.051 56.3574 59.5636L57.1278 58.926ZM54.0198 57.708V56.708C52.3669 56.708 50.9786 57.2852 50.0027 58.5141L50.7858 59.136L51.5689 59.7579C52.105 59.0828 52.8727 58.708 54.0198 58.708V57.708ZM50.7858 59.136L50.0118 58.5028C49.0697 59.6543 48.6404 61.1723 48.61 62.9408L49.6098 62.958L50.6097 62.9752C50.6352 61.4957 50.9899 60.4657 51.5598 59.7692L50.7858 59.136ZM49.6098 62.958V61.958H43.8978V62.958V63.958H49.6098V62.958ZM43.8978 62.958L44.8972 62.9913C45.0033 59.8107 45.9351 57.5507 47.559 56.048L46.8798 55.314L46.2006 54.58C44.0725 56.5493 43.0163 59.3853 42.8984 62.9247L43.8978 62.958ZM46.8798 55.314L47.5536 56.053C49.2491 54.507 51.4062 53.71 54.1038 53.71V52.71V51.71C50.9774 51.71 48.3185 52.649 46.2061 54.575L46.8798 55.314ZM54.1038 52.71V53.71C57.119 53.71 59.2806 54.513 60.7467 55.9791L61.4538 55.272L62.1609 54.5649C60.211 52.615 57.4727 51.71 54.1038 51.71V52.71ZM61.4538 55.272L60.7526 55.9849C62.2392 57.4471 63.0158 59.4004 63.0158 61.95H64.0158H65.0158C65.0158 58.9556 64.0845 56.4569 62.155 54.5591L61.4538 55.272ZM64.0158 61.95H63.0158C63.0158 63.9444 62.4814 65.8558 61.3911 67.6989L62.2518 68.208L63.1125 68.7171C64.3742 66.5842 65.0158 64.3236 65.0158 61.95H64.0158ZM62.2518 68.208L61.3911 67.6989C60.2554 69.6187 58.964 71.2845 57.5193 72.7023L58.2198 73.416L58.9203 74.1297C60.4997 72.5795 61.8962 70.7733 63.1125 68.7171L62.2518 68.208ZM58.2198 73.416L57.5262 72.6957C56.0345 74.1321 54.0774 75.8815 51.6499 77.9463L52.2978 78.708L52.9457 79.4697C55.3902 77.3905 57.3811 75.6119 58.9134 74.1363L58.2198 73.416ZM52.2978 78.708V79.708H64.6878V78.708V77.708H52.2978V78.708ZM64.6878 78.708H63.6878V83.58H64.6878H65.6878V78.708H64.6878ZM64.6878 83.58V82.58H43.9398V83.58V84.58H64.6878V83.58ZM43.9398 83.58H44.9398V79.212H43.9398H42.9398V83.58H43.9398ZM43.9398 79.212L44.5857 79.9754L46.7697 78.1274L46.1238 77.364L45.4779 76.6006L43.2939 78.4486L43.9398 79.212Z" fill="#1E1E1E" mask="url(#path-9-outside-3_2207_181)"/>
</g>
</g>
<defs>
<filter id="filter0_d_2207_181" x="8.4895" y="16.6" width="19.3062" height="16.9" filterUnits="userSpaceOnUse" color-interpolation-filters="sRGB">
<feFlood flood-opacity="0" result="BackgroundImageFix"/>
<feColorMatrix in="SourceAlpha" type="matrix" values="0 0 0 0 0 0 0 0 0 0 0 0 0 0 0 0 0 0 127 0" result="hardAlpha"/>
<feOffset dx="-1" dy="1"/>
<feComposite in2="hardAlpha" operator="out"/>
<feColorMatrix type="matrix" values="0 0 0 0 0 0 0 0 0 0 0 0 0 0 0 0 0 0 0.8 0"/>
<feBlend mode="normal" in2="BackgroundImageFix" result="effect1_dropShadow_2207_181"/>
<feBlend mode="normal" in="SourceGraphic" in2="effect1_dropShadow_2207_181" result="shape"/>
</filter>
<filter id="filter1_d_2207_181" x="56.2043" y="107.5" width="19.3062" height="16.8999" filterUnits="userSpaceOnUse" color-interpolation-filters="sRGB">
<feFlood flood-opacity="0" result="BackgroundImageFix"/>
<feColorMatrix in="SourceAlpha" type="matrix" values="0 0 0 0 0 0 0 0 0 0 0 0 0 0 0 0 0 0 127 0" result="hardAlpha"/>
<feOffset dx="-1" dy="1"/>
<feComposite in2="hardAlpha" operator="out"/>
<feColorMatrix type="matrix" values="0 0 0 0 0 0 0 0 0 0 0 0 0 0 0 0 0 0 0.8 0"/>
<feBlend mode="normal" in2="BackgroundImageFix" result="effect1_dropShadow_2207_181"/>
<feBlend mode="normal" in="SourceGraphic" in2="effect1_dropShadow_2207_181" result="shape"/>
</filter>
<filter id="filter2_d_2207_181" x="25.345" y="51.71" width="40.3429" height="35.29" filterUnits="userSpaceOnUse" color-interpolation-filters="sRGB">
<feFlood flood-opacity="0" result="BackgroundImageFix"/>
<feColorMatrix in="SourceAlpha" type="matrix" values="0 0 0 0 0 0 0 0 0 0 0 0 0 0 0 0 0 0 127 0" result="hardAlpha"/>
<feOffset dx="-2" dy="2"/>
<feComposite in2="hardAlpha" operator="out"/>
<feColorMatrix type="matrix" values="0 0 0 0 0 0 0 0 0 0 0 0 0 0 0 0 0 0 0.8 0"/>
<feBlend mode="normal" in2="BackgroundImageFix" result="effect1_dropShadow_2207_181"/>
<feBlend mode="normal" in="SourceGraphic" in2="effect1_dropShadow_2207_181" result="shape"/>
</filter>
<clipPath id="clip0_2207_181">
<rect width="85" height="140" rx="8" fill="white"/>
</clipPath>
</defs>
</svg>
