<svg width="85" height="140" viewBox="0 0 85 140" fill="none" xmlns="http://www.w3.org/2000/svg">
<g clip-path="url(#clip0_2207_112)">
<rect width="85" height="140" rx="8" fill="#EAEAEC"/>
<rect x="5" y="8" width="75" height="124" rx="6" fill="#EAD426"/>
<ellipse cx="42.7084" cy="70.0481" rx="65.4861" ry="30.7695" transform="rotate(-59.5565 42.7084 70.0481)" fill="#EAEAEC"/>
<ellipse cx="42.7303" cy="69.6278" rx="57.8329" ry="27.1735" transform="rotate(-59.5565 42.7303 69.6278)" fill="#EAD426"/>
<g filter="url(#filter0_d_2207_112)">
<mask id="path-5-outside-1_2207_112" maskUnits="userSpaceOnUse" x="5" y="12" width="17" height="19" fill="black">
<rect fill="white" x="5" y="12" width="17" height="19"/>
<path d="M6.47338 15.6V12.504H12.2574V30H8.80138V15.6H6.47338ZM15.1687 15.6V12.504H20.9527V30H17.4967V15.6H15.1687Z"/>
</mask>
<path d="M6.47338 15.6V12.504H12.2574V30H8.80138V15.6H6.47338ZM15.1687 15.6V12.504H20.9527V30H17.4967V15.6H15.1687Z" fill="#EAEAEC"/>
<path d="M6.47338 15.6H5.97338V16.1H6.47338V15.6ZM6.47338 12.504V12.004H5.97338V12.504H6.47338ZM12.2574 12.504H12.7574V12.004H12.2574V12.504ZM12.2574 30V30.5H12.7574V30H12.2574ZM8.80138 30H8.30138V30.5H8.80138V30ZM8.80138 15.6H9.30138V15.1H8.80138V15.6ZM6.47338 15.6H6.97338V12.504H6.47338H5.97338V15.6H6.47338ZM6.47338 12.504V13.004H12.2574V12.504V12.004H6.47338V12.504ZM12.2574 12.504H11.7574V30H12.2574H12.7574V12.504H12.2574ZM12.2574 30V29.5H8.80138V30V30.5H12.2574V30ZM8.80138 30H9.30138V15.6H8.80138H8.30138V30H8.80138ZM8.80138 15.6V15.1H6.47338V15.6V16.1H8.80138V15.6ZM15.1687 15.6H14.6687V16.1H15.1687V15.6ZM15.1687 12.504V12.004H14.6687V12.504H15.1687ZM20.9527 12.504H21.4527V12.004H20.9527V12.504ZM20.9527 30V30.5H21.4527V30H20.9527ZM17.4967 30H16.9967V30.5H17.4967V30ZM17.4967 15.6H17.9967V15.1H17.4967V15.6ZM15.1687 15.6H15.6687V12.504H15.1687H14.6687V15.6H15.1687ZM15.1687 12.504V13.004H20.9527V12.504V12.004H15.1687V12.504ZM20.9527 12.504H20.4527V30H20.9527H21.4527V12.504H20.9527ZM20.9527 30V29.5H17.4967V30V30.5H20.9527V30ZM17.4967 30H17.9967V15.6H17.4967H16.9967V30H17.4967ZM17.4967 15.6V15.1H15.1687V15.6V16.1H17.4967V15.6Z" fill="#1E1E1E" mask="url(#path-5-outside-1_2207_112)"/>
</g>
<g filter="url(#filter1_d_2207_112)">
<mask id="path-7-outside-2_2207_112" maskUnits="userSpaceOnUse" x="63" y="109" width="17" height="19" fill="black">
<rect fill="white" x="63" y="109" width="17" height="19"/>
<path d="M78.5266 124.4L78.5266 127.496L72.7426 127.496L72.7426 110L76.1986 110L76.1986 124.4L78.5266 124.4ZM69.8313 124.4L69.8313 127.496L64.0473 127.496L64.0473 110L67.5033 110L67.5033 124.4L69.8313 124.4Z"/>
</mask>
<path d="M78.5266 124.4L78.5266 127.496L72.7426 127.496L72.7426 110L76.1986 110L76.1986 124.4L78.5266 124.4ZM69.8313 124.4L69.8313 127.496L64.0473 127.496L64.0473 110L67.5033 110L67.5033 124.4L69.8313 124.4Z" fill="#EAEAEC"/>
<path d="M78.5266 124.4L79.0266 124.4L79.0266 123.9L78.5266 123.9L78.5266 124.4ZM78.5266 127.496L78.5266 127.996L79.0266 127.996L79.0266 127.496L78.5266 127.496ZM72.7426 127.496L72.2426 127.496L72.2426 127.996L72.7426 127.996L72.7426 127.496ZM72.7426 110L72.7426 109.5L72.2426 109.5L72.2426 110L72.7426 110ZM76.1986 110L76.6986 110L76.6986 109.5L76.1986 109.5L76.1986 110ZM76.1986 124.4L75.6986 124.4L75.6986 124.9L76.1986 124.9L76.1986 124.4ZM78.5266 124.4L78.0266 124.4L78.0266 127.496L78.5266 127.496L79.0266 127.496L79.0266 124.4L78.5266 124.4ZM78.5266 127.496L78.5266 126.996L72.7426 126.996L72.7426 127.496L72.7426 127.996L78.5266 127.996L78.5266 127.496ZM72.7426 127.496L73.2426 127.496L73.2426 110L72.7426 110L72.2426 110L72.2426 127.496L72.7426 127.496ZM72.7426 110L72.7426 110.5L76.1986 110.5L76.1986 110L76.1986 109.5L72.7426 109.5L72.7426 110ZM76.1986 110L75.6986 110L75.6986 124.4L76.1986 124.4L76.6986 124.4L76.6986 110L76.1986 110ZM76.1986 124.4L76.1986 124.9L78.5266 124.9L78.5266 124.4L78.5266 123.9L76.1986 123.9L76.1986 124.4ZM69.8313 124.4L70.3313 124.4L70.3313 123.9L69.8313 123.9L69.8313 124.4ZM69.8313 127.496L69.8313 127.996L70.3313 127.996L70.3313 127.496L69.8313 127.496ZM64.0473 127.496L63.5473 127.496L63.5473 127.996L64.0473 127.996L64.0473 127.496ZM64.0473 110L64.0473 109.5L63.5473 109.5L63.5473 110L64.0473 110ZM67.5033 110L68.0033 110L68.0033 109.5L67.5033 109.5L67.5033 110ZM67.5033 124.4L67.0033 124.4L67.0033 124.9L67.5033 124.9L67.5033 124.4ZM69.8313 124.4L69.3313 124.4L69.3313 127.496L69.8313 127.496L70.3313 127.496L70.3313 124.4L69.8313 124.4ZM69.8313 127.496L69.8313 126.996L64.0473 126.996L64.0473 127.496L64.0473 127.996L69.8313 127.996L69.8313 127.496ZM64.0473 127.496L64.5473 127.496L64.5473 110L64.0473 110L63.5473 110L63.5473 127.496L64.0473 127.496ZM64.0473 110L64.0473 110.5L67.5033 110.5L67.5033 110L67.5033 109.5L64.0473 109.5L64.0473 110ZM67.5033 110L67.0033 110L67.0033 124.4L67.5033 124.4L68.0033 124.4L68.0033 110L67.5033 110ZM67.5033 124.4L67.5033 124.9L69.8313 124.9L69.8313 124.4L69.8313 123.9L67.5033 123.9L67.5033 124.4Z" fill="#1E1E1E" mask="url(#path-7-outside-2_2207_112)"/>
</g>
</g>
<g filter="url(#filter2_d_2207_112)">
<mask id="path-9-outside-3_2207_112" maskUnits="userSpaceOnUse" x="32" y="51" width="29" height="33" fill="black">
<rect fill="white" x="32" y="51" width="29" height="33"/>
<path d="M33.7991 57.8V52.382H43.9211V83H37.8731V57.8H33.7991ZM49.0159 57.8V52.382H59.1379V83H53.0899V57.8H49.0159Z"/>
</mask>
<path d="M33.7991 57.8V52.382H43.9211V83H37.8731V57.8H33.7991ZM49.0159 57.8V52.382H59.1379V83H53.0899V57.8H49.0159Z" fill="#EAEAEC"/>
<path d="M33.7991 57.8H32.7991V58.8H33.7991V57.8ZM33.7991 52.382V51.382H32.7991V52.382H33.7991ZM43.9211 52.382H44.9211V51.382H43.9211V52.382ZM43.9211 83V84H44.9211V83H43.9211ZM37.8731 83H36.8731V84H37.8731V83ZM37.8731 57.8H38.8731V56.8H37.8731V57.8ZM33.7991 57.8H34.7991V52.382H33.7991H32.7991V57.8H33.7991ZM33.7991 52.382V53.382H43.9211V52.382V51.382H33.7991V52.382ZM43.9211 52.382H42.9211V83H43.9211H44.9211V52.382H43.9211ZM43.9211 83V82H37.8731V83V84H43.9211V83ZM37.8731 83H38.8731V57.8H37.8731H36.8731V83H37.8731ZM37.8731 57.8V56.8H33.7991V57.8V58.8H37.8731V57.8ZM49.0159 57.8H48.0159V58.8H49.0159V57.8ZM49.0159 52.382V51.382H48.0159V52.382H49.0159ZM59.1379 52.382H60.1379V51.382H59.1379V52.382ZM59.1379 83V84H60.1379V83H59.1379ZM53.0899 83H52.0899V84H53.0899V83ZM53.0899 57.8H54.0899V56.8H53.0899V57.8ZM49.0159 57.8H50.0159V52.382H49.0159H48.0159V57.8H49.0159ZM49.0159 52.382V53.382H59.1379V52.382V51.382H49.0159V52.382ZM59.1379 52.382H58.1379V83H59.1379H60.1379V52.382H59.1379ZM59.1379 83V82H53.0899V83V84H59.1379V83ZM53.0899 83H54.0899V57.8H53.0899H52.0899V83H53.0899ZM53.0899 57.8V56.8H49.0159V57.8V58.8H53.0899V57.8Z" fill="#1E1E1E" mask="url(#path-9-outside-3_2207_112)"/>
</g>
<defs>
<filter id="filter0_d_2207_112" x="4.97339" y="12.004" width="16.4792" height="19.496" filterUnits="userSpaceOnUse" color-interpolation-filters="sRGB">
<feFlood flood-opacity="0" result="BackgroundImageFix"/>
<feColorMatrix in="SourceAlpha" type="matrix" values="0 0 0 0 0 0 0 0 0 0 0 0 0 0 0 0 0 0 127 0" result="hardAlpha"/>
<feOffset dx="-1" dy="1"/>
<feComposite in2="hardAlpha" operator="out"/>
<feColorMatrix type="matrix" values="0 0 0 0 0 0 0 0 0 0 0 0 0 0 0 0 0 0 0.8 0"/>
<feBlend mode="normal" in2="BackgroundImageFix" result="effect1_dropShadow_2207_112"/>
<feBlend mode="normal" in="SourceGraphic" in2="effect1_dropShadow_2207_112" result="shape"/>
</filter>
<filter id="filter1_d_2207_112" x="62.5474" y="109.5" width="16.4792" height="19.4961" filterUnits="userSpaceOnUse" color-interpolation-filters="sRGB">
<feFlood flood-opacity="0" result="BackgroundImageFix"/>
<feColorMatrix in="SourceAlpha" type="matrix" values="0 0 0 0 0 0 0 0 0 0 0 0 0 0 0 0 0 0 127 0" result="hardAlpha"/>
<feOffset dx="-1" dy="1"/>
<feComposite in2="hardAlpha" operator="out"/>
<feColorMatrix type="matrix" values="0 0 0 0 0 0 0 0 0 0 0 0 0 0 0 0 0 0 0.8 0"/>
<feBlend mode="normal" in2="BackgroundImageFix" result="effect1_dropShadow_2207_112"/>
<feBlend mode="normal" in="SourceGraphic" in2="effect1_dropShadow_2207_112" result="shape"/>
</filter>
<filter id="filter2_d_2207_112" x="30.7991" y="51.3821" width="29.3389" height="34.6179" filterUnits="userSpaceOnUse" color-interpolation-filters="sRGB">
<feFlood flood-opacity="0" result="BackgroundImageFix"/>
<feColorMatrix in="SourceAlpha" type="matrix" values="0 0 0 0 0 0 0 0 0 0 0 0 0 0 0 0 0 0 127 0" result="hardAlpha"/>
<feOffset dx="-2" dy="2"/>
<feComposite in2="hardAlpha" operator="out"/>
<feColorMatrix type="matrix" values="0 0 0 0 0 0 0 0 0 0 0 0 0 0 0 0 0 0 0.8 0"/>
<feBlend mode="normal" in2="BackgroundImageFix" result="effect1_dropShadow_2207_112"/>
<feBlend mode="normal" in="SourceGraphic" in2="effect1_dropShadow_2207_112" result="shape"/>
</filter>
<clipPath id="clip0_2207_112">
<rect width="85" height="140" rx="8" fill="white"/>
</clipPath>
</defs>
</svg>
